<svg height="128" viewBox="1 0 479.99961 479" width="128" xmlns="http://www.w3.org/2000/svg"><path d="m480 240.5c.039062-21.070312-2.714844-42.054688-8.191406-62.398438-34.539063-127.785156-165.914063-203.578124-293.824219-169.503906-1.945313.511719-3.882813 1.015625-5.824219 1.597656-.214844.085938-.421875.179688-.625.289063-38.386718 11.378906-73.296875 32.21875-101.527344 60.609375-.113281.109375-.175781.253906-.28125.367188-93.117187 93.628906-92.949218 244.9375.375 338.359374 1.1875 1.257813 2.34375 2.398438 3.480469 3.488282.550781.734375 1.21875 1.367187 1.976563 1.878906 28.871094 27.308594 64.109375 46.964844 102.511718 57.183594 128.015626 34.15625 259.503907-41.851563 293.792969-169.832032.519531-1.863281 1.023438-3.734374 1.457031-5.597656 0-.082031 0-.167968 0-.25 4.425782-18.402344 6.667969-37.261718 6.679688-56.191406zm-34.59375 27.679688c-1.253906-.902344-2.511719-1.785157-3.78125-2.65625-5.234375-3.597657-10.539062-7.0625-16-10.222657-3.082031-1.824219-6.242188-3.496093-9.457031-5.191406-2.695313-1.394531-5.402344-2.707031-8.175781-4.042969-2.992188-1.414062-5.992188-2.742187-8.6875-3.863281l-.105469-.046875-.113281-.046875c-2.3125-.992187-4.71875-1.984375-7.085938-2.921875-3.90625-1.496094-7.808594-2.902344-11.488281-4.070312-2.535157-.898438-5.074219-1.664063-7.550781-2.402344l-1.027344-.3125c-2.085938-.582032-4.191406-1.167969-6.597656-1.757813-1.792969-.496093-3.519532-.960937-4.800782-1.175781-2.28125-.578125-4.558594-1.066406-7-1.601562-3.199218-.664063-6.351562-1.246094-10.070312-1.808594-.128906 0-.289063 0-.480469-.054688-2.015625-.328125-4-.640625-5.824219-.855468-2.800781-.425782-5.679687-.761719-8.488281-1.015626-3.71875-.328124-7.359375-.585937-10.9375-.738281-6.101563-.382812-12.199219-.453125-18.289063-.316406-.359374 0-.71875 0-1.070312 0-5.929688.15625-11.832031.589844-17.71875 1.222656-.472656.046875-.953125.078125-1.425781.136719-5.800781.65625-11.566407 1.550781-17.304688 2.628906l-1.695312.320313c-5.578125 1.066406-11.113281 2.355469-16.605469 3.867187-.371094.09375-.738281.160156-1.105469.253906-1.804687-1.792968-3.574219-3.601562-5.3125-5.429687-1.085937-1.152344-2.207031-2.273437-3.265625-3.433594-3.285156-3.625-6.46875-7.3125-9.496094-11.097656-1.007812-1.214844-1.941406-2.398437-2.988281-3.886719-1.722656-2.273437-3.371093-4.542968-4.960937-6.742187-1.824219-2.578125-3.640625-5.226563-5.410156-8.113281-2.238282-3.480469-4.320313-6.945313-6.335938-10.511719-1.832031-3.199219-3.589844-6.496094-5.230469-9.855469s-3.28125-6.863281-4.800781-10.234375c-1.222656-2.75-2.359375-5.597656-3.535156-8.640625-.558594-1.328125-1.054688-2.664062-1.601563-4.054688 2.351563-1.335937 4.753907-2.542968 7.144531-3.792968 2.175782-1.140625 4.328126-2.351563 6.535157-3.414063 2.722656-1.304687 5.496093-2.449219 8.257812-3.640625 2.199219-.953125 4.375-1.984375 6.609375-2.863281 2.804688-1.113281 5.671875-2.046875 8.519532-3.039063 2.238281-.800781 4.453124-1.648437 6.71875-2.402343 2.871093-.894531 5.792968-1.597657 8.695312-2.398438 2.289062-.617187 4.550781-1.320312 6.863281-1.855469 2.898438-.6875 5.839844-1.183593 8.761719-1.746093 2.398438-.457031 4.695312-1 7.0625-1.382813 2.90625-.464844 5.839844-.738281 8.800781-1.082031 2.402344-.285156 4.800781-.671875 7.265625-.878906 2.984375-.253907 5.984375-.3125 8.984375-.449219 2.398438-.109375 4.796875-.316406 7.199219-.351562 5.398438-.0625 10.8125.066406 16.246094.386718 6.714844.398438 13.359375 1.109375 19.945312 2.09375h.320313c6.488281.988282 12.902343 2.25 19.238281 3.785156l.601562.136719c6.253907 1.527344 12.414063 3.335938 18.496094 5.382813l.800782.257812c5.992187 2.046875 11.878906 4.367188 17.671874 6.910156l1 .417969c5.699219 2.542969 11.285157 5.324219 16.757813 8.34375.386719.214844.800781.40625 1.160156.613281 5.375 3 10.625 6.25 15.746094 9.6875.4375.296876.894531.578126 1.335937.875 5.023438 3.429688 9.902344 7.09375 14.65625 10.941407.480469.394531.976563.761719 1.445313 1.152343 4.65625 3.839844 9.160156 7.882813 13.511719 12.128907.34375.335937.699218.65625 1.035156.992187 4.722656 18.351563 7.085938 37.234375 7.03125 56.183594 0 13.195312-1.160156 26.363281-3.464844 39.351562l-.0625-.046874c-4.859375-4.105469-9.921875-7.9375-15.066406-11.625zm1.433594-113.832032c-.191406-.152344-.410156-.289062-.609375-.4375-4.171875-3.203125-8.4375-6.253906-12.800781-9.152344-.863282-.578124-1.734376-1.144531-2.613282-1.714843-4.441406-2.886719-8.953125-5.664063-13.601562-8.246094-.382813-.214844-.800782-.410156-1.167969-.625-4.433594-2.449219-8.953125-4.726563-13.527344-6.886719-.800781-.375-1.601562-.800781-2.398437-1.136718-4.722656-2.132813-9.523438-4.136719-14.402344-6.007813-.992188-.375-1.984375-.738281-2.984375-1.105469-4.984375-1.824218-10.007813-3.535156-15.109375-5.03125-.28125-.085937-.570312-.152344-.851562-.230468-4.933594-1.425782-9.925782-2.65625-14.957032-3.769532-.984375-.222656-1.960937-.457031-2.953125-.65625-5.089843-1.066406-10.222656-1.960937-15.398437-2.679687-1.042969-.152344-2.089844-.273438-3.128906-.40625-5.382813-.6875-10.800782-1.257813-16.25-1.601563-4.832032-.296875-9.648438-.445312-14.445313-.441406-.53125 0-1.050781.050781-1.601563.058594-2.152343 0-4.289062.125-6.398437.199218-3.273437.113282-6.539063.238282-9.792969.480469-2.402344.183594-4.800781.429688-7.199218.6875-2.992188.3125-5.96875.671875-8.9375 1.105469-2.464844.351562-4.925782.734375-7.375 1.175781-2.9375.511719-5.855469 1.109375-8.800782 1.734375-2.398437.519532-4.800781 1.015625-7.144531 1.601563-3.136719.796875-6.230469 1.671875-9.328125 2.574219-2.078125.601562-4.175781 1.152343-6.238281 1.816406-4.882813 1.566406-9.714844 3.289062-14.496094 5.167968-.800781.328126-1.640625.6875-2.464844 1.023438-4.425781 1.808594-8.800781 3.730469-13.144531 5.800781-1.597656.800781-3.199219 1.648438-4.800781 2.464844-2.472657 1.246094-4.976563 2.398437-7.414063 3.78125l-.265625-.910156c-.855469-3-1.679687-6.046875-2.398437-9.367188-.496094-1.894531-.941406-3.863281-1.335938-5.90625-.609375-2.910156-1.136718-5.816406-1.601562-8.796875-.382813-2.304687-.6875-4.609375-.992188-6.9375l-.246094-2.074218c-.375-2.894532-.679687-5.871094-.914062-8.925782-.011719-.21875-.039062-.433594-.078125-.648437v-.144531c-.152344-2.09375-.296875-4.261719-.382813-6.664063-.21875-3.671875-.289062-7.34375-.289062-11.015625 0-4.265625.136719-8.519531.375-12.800781.082031-1.445313.238281-2.894531.351562-4.34375.214844-2.78125.425782-5.597657.746094-8.351563.191406-1.710937.453125-3.414062.695313-5.121094.34375-2.511718.6875-5.007812 1.109375-7.503906.304687-1.765625.664062-3.519531 1.011718-5.277344.316407-1.601562.671876-3.257812 1.023438-4.882812l.757812-.191406c108.429688-28.917969 221.542969 26.734375 264.800782 130.28125zm-283.046875-124.429687c-.074219.40625-.121094.796875-.195313 1.230469-.664062 3.808593-1.222656 7.640624-1.703125 11.488281-.160156 1.28125-.296875 2.558593-.429687 3.839843-.335938 3.136719-.605469 6.277344-.800782 9.421876-.089843 1.257812-.183593 2.515624-.257812 3.769531-.253906 4.273437-.40625 8.542969-.40625 12.832031 0 4 .085938 8 .328125 11.792969.078125 2.359375.238281 4.71875.390625 6.605469.007812.457031.042969.910156.105469 1.363281.253906 3.335937.589843 6.589843.992187 9.671875l.246094 2.070312c.335938 2.578125.671875 5.074219 1.082031 7.511719.496094 3.199219 1.070313 6.34375 1.710938 9.367187.441406 2.265626.96875 4.617188 1.488281 6.519532.878906 4.050781 2.023438 8.363281 3.574219 13.496094.65625 2.28125 1.3125 4.5625 2.113281 6.769531.078125.304687.167969.601562.265625.886719v.074218l.40625 1.183594c.25.742188.488281 1.472656.679687 1.9375.9375 2.726562 1.871094 5.359375 2.878907 7.75 1.175781 3.105469 2.402343 6.191406 3.800781 9.273438 1.601562 3.605468 3.28125 7.199218 5.058594 10.75 1.773437 3.554687 3.671875 7.199218 5.664062 10.671874 2.15625 3.816407 4.390625 7.546876 6.695313 11.113282 1.847656 3.03125 3.871093 5.984375 5.949219 8.917968 1.714843 2.402344 3.417968 4.738282 5.097656 6.953126 1.152344 1.601562 2.289062 3.082031 3.449218 4.480468 3.199219 4 6.558594 7.878906 10.039063 11.71875 1.167969 1.28125 2.398437 2.503906 3.589844 3.769532 1.792969 1.894531 3.539062 3.824218 5.394531 5.679687-.664062 2.503906-1.289062 5.007813-2.058594 7.503906-.796875 2.625-1.597656 5.328125-2.460937 7.839844-1.457031 4.328125-3.082031 8.578125-4.800781 12.800781-1.207032 3.039063-2.519532 6.078125-4 9.167969-1.71875 3.679687-3.527344 7.34375-5.167969 10.589844l-1.359375 2.449219c-1 1.816406-1.992188 3.625-3.160156 5.550781-2.402344 4.167969-4.929688 8.179687-7.503907 12-1.601562 2.28125-3.136719 4.5625-4.921875 7.035156-.503906.6875-.992187 1.335937-1.96875 2.550781-1.246094 1.75-2.628906 3.582032-4.398437 5.71875-.742188 1.023438-1.601563 1.976563-2.609375 3.199219l-.214844.257813c-2.152344-1.265626-4.230469-2.640626-6.335938-4-2.238281-1.414063-4.519531-2.777344-6.703124-4.265626-2.3125-1.597656-4.527344-3.292968-6.777344-4.957031-2.078125-1.546875-4.214844-3.023437-6.238282-4.640625-2.226562-1.769531-4.335937-3.664062-6.488281-5.511718-1.929687-1.65625-3.90625-3.25-5.769531-4.96875-2.121094-1.953126-4.121094-4-6.160156-6.0625-1.757813-1.753907-3.582032-3.449219-5.289063-5.257813-2.015625-2.144531-3.894531-4.414063-5.820312-6.640625-1.601563-1.832031-3.25-3.597656-4.800781-5.488281-1.945313-2.398438-3.746094-4.910157-5.601563-7.390625-1.367187-1.832032-2.808594-3.609375-4.121094-5.480469-1.964843-2.824219-3.773437-5.769531-5.597656-8.679687-1.039063-1.648438-2.167969-3.238282-3.199219-4.929688-2.769531-4.644531-5.378906-9.402344-7.824218-14.269531-1.53125-3.050781-2.988282-6.128907-4.371094-9.234375-.492188-1.109375-.925782-2.238282-1.40625-3.359375-.855469-2-1.726563-4-2.519532-6.023438-.535156-1.359375-1.007812-2.742187-1.511718-4.113281-.664063-1.796875-1.359375-3.582031-1.976563-5.398438-.511719-1.496093-.960937-3.015624-1.441406-4.527343-.542969-1.695313-1.109375-3.394531-1.597656-5.105469-.457031-1.597656-.800781-3.136719-1.265625-4.710938-.464844-1.578124-.925782-3.335937-1.34375-5.015624-.414063-1.679688-.726563-3.273438-1.085938-4.90625-.363281-1.628907-.753906-3.261719-1.074218-4.910157-.320313-1.648437-.589844-3.335937-.878907-5.007812-.289062-1.671875-.601562-3.257813-.839843-4.886719-.242188-1.632812-.449219-3.378906-.664063-5.066406s-.441406-3.246094-.617187-4.878906c-.175782-1.632813-.296876-3.464844-.441407-5.191407-.125-1.601562-.285156-3.199219-.382812-4.800781-.101563-1.753906-.152344-3.511719-.214844-5.265625-.054687-1.597656-.136719-3.199219-.167969-4.796875 0-1.761719 0-3.53125 0-5.289062 0-1.601563 0-3.199219.046875-4.746094.058594-1.796875.167969-3.589844.273438-5.390625.078125-1.542969.136719-3.078125.253906-4.617188.136719-1.832031.328125-3.65625.511719-5.480469.152344-1.511718.28125-3.023437.457031-4.535156.222656-1.832031.503906-3.664062.800781-5.488281.222656-1.496094.414063-3 .664063-4.488281.304687-1.839844.671875-3.671875 1.023437-5.503906.289063-1.46875.550782-2.949219.863282-4.421876.394531-1.847656.847656-3.6875 1.289062-5.527343.28125-1.183594.558594-2.402344.863281-3.554688 22.976563-22.605469 50.582031-39.964843 80.914063-50.878906zm-147.792969 210.582031c-.179688-49.199219 16.003906-97.0625 46.007812-136.054688 0 .3125-.046874.621094-.089843.925782-.679688 5.175781-1.167969 10.402344-1.503907 15.5625-.070312 1.03125-.117187 2.0625-.175781 3.09375-.269531 5.328125-.414062 10.65625-.335937 16v.839844c.105468 5.199218.402344 10.402343.800781 15.585937.070313.855469.128906 1.71875.214844 2.574219.488281 5.21875 1.167969 10.402344 2 15.585937.152343.949219.328125 1.894531.496093 2.847657.921876 5.3125 1.96875 10.605468 3.257813 15.863281l.070313.28125c1.273437 5.183593 2.769531 10.320312 4.394531 15.429687.277343.890625.550781 1.777344.839843 2.65625 1.648438 4.980469 3.460938 9.917969 5.4375 14.808594.371094.921875.800782 1.839844 1.152344 2.753906 2.105469 5.03125 4.328125 10.03125 6.792969 14.933594 2.585937 5.164062 5.351563 10.207031 8.296875 15.136719.957031 1.601562 2.039062 3.152343 3.039062 4.742187 2.046876 3.265625 4.070313 6.539063 6.265626 9.683594 1.277343 1.839844 2.679687 3.574219 4 5.375 2.0625 2.792969 4.085937 5.597656 6.261718 8.289062 1.511719 1.871094 3.136719 3.636719 4.695313 5.460938 2.144531 2.488281 4.265625 5.007812 6.511719 7.410156 1.699218 1.816406 3.488281 3.535156 5.242187 5.296875 2.261719 2.269531 4.503906 4.566407 6.855469 6.75 1.863281 1.726563 3.816406 3.351563 5.734375 5.023438 2.402343 2.074219 4.753906 4.160156 7.203125 6.144531 2.007812 1.601562 4.09375 3.128906 6.160156 4.679688 2.519531 1.886718 5.023438 3.785156 7.621094 5.601562 2.144531 1.480469 4.351562 2.871094 6.554687 4.285156 1.863281 1.203125 3.664063 2.488282 5.597657 3.648438-.429688.449218-.800782.890625-1.277344 1.335937-5.050782 5.199219-10.394532 10.105469-16 14.699219-1.601563 1.351562-3.203125 2.628906-4.953125 4-1.601563 1.269531-3.199219 2.550781-5.167969 4-1.046875.796875-2.167969 1.597656-3.503906 2.519531-2.5625 1.886719-5.199219 3.695313-7.945313 5.421875-3.320312 2.160156-6.640625 4.25-10.105469 6.257813-3.679687 2.117187-7.421874 4.117187-11.199218 6.03125-1.230469.625-2.503906 1.175781-3.75 1.777343-2.578125 1.246094-5.160156 2.476563-7.785156 3.621094-1.496094.648438-3.007813 1.242188-4.519532 1.855469-2.398437 1-4.863281 1.992187-7.328125 2.90625-1.601562.589844-3.199219 1.136719-4.839843 1.695313-1.640626.558593-3.199219 1.074218-4.800782 1.601562l-.664062-.707031c-42.167969-41.828125-65.785156-98.832031-65.558594-158.230469zm79.765625 171.25c5.9375-2.152344 11.761719-4.617188 17.523437-7.203125 1.4375-.65625 2.871094-1.324219 4.300782-2.007813 5.730468-2.726562 11.394531-5.597656 16.890625-8.796874 3.71875-2.152344 7.292969-4.394532 10.742187-6.640626 2.953125-1.867187 5.929688-3.890624 8.585938-5.847656 1.4375-.992187 2.886718-1.992187 3.941406-2.859375 1.863281-1.359375 3.746094-2.796875 5.402344-4.140625 1.855468-1.441406 3.632812-2.882812 5.285156-4.296875 6.007812-4.921875 11.738281-10.171875 17.160156-15.730469 1.601563-1.597656 3.242188-3.316406 4.464844-4.703124 1.226562-1.382813 2.5625-2.648438 3.800781-4.0625.136719-.152344.265625-.304688.382813-.464844v-.046875c1.601562-1.792969 3.160156-3.648438 4.554687-5.34375 1.199219-1.378907 2.285157-2.664063 3.007813-3.664063 1.726562-2.089844 3.375-4.257812 4.453125-5.824218.800781-.953126 1.457031-1.824219 2.546875-3.28125 1.597656-2.28125 3.253906-4.648438 4.941406-7.085938 2.816406-4.234375 5.546875-8.546875 8-12.859375 1.183594-1.957031 2.296875-3.957031 3.402344-5.972656l1.445312-2.625c1.882813-3.679688 3.769532-7.519531 5.539063-11.328125 1.597656-3.351563 3.023437-6.710938 4.335937-9.992188 1.832032-4.472656 3.566406-9.03125 5.140625-13.695312.914063-2.730469 1.832031-5.601563 2.625-8.351563.800781-2.5625 1.535157-5.183593 2.234375-7.816406 2.167969-.59375 4.34375-1.148437 6.527344-1.664063 2.144531-.519531 4.277344-1.074218 6.398438-1.527343 3.039062-.640625 6.105468-1.136719 9.167968-1.648438 2.046875-.34375 4.082032-.746093 6.136719-1.035156 3.40625-.46875 6.832031-.796875 10.257813-1.101563 1.726562-.160156 3.445312-.402343 5.183593-.519531 5.167969-.359375 10.34375-.542969 15.535157-.554687 3.679687 0 7.273437.082031 11.078124.3125 3.480469.152344 6.890626.394531 10.402344.695312 2.488282.226563 5.039063.53125 7.757813.929688 1.898437.230468 3.800781.535156 6.242187.902344.136719 0 .304688.042968.496094.058593.734375.121094 1.496094.289063 2.238281.414063 0 2.570312-.175781 5.121094-.28125 7.679687-.101562 2.5625-.140625 5.144531-.335937 7.699219-.214844 2.855469-.605469 5.679688-.925782 8.519531-.296874 2.542969-.503906 5.09375-.878906 7.613281-.425781 2.824219-1.015625 5.601563-1.546875 8.410157-.46875 2.496093-.863281 5.007812-1.414062 7.480469-.632813 2.816406-1.433594 5.597656-2.167969 8.359374-.640625 2.398438-1.191406 4.800782-1.914062 7.199219-.855469 2.847657-1.894532 5.601563-2.863282 8.441407-.800781 2.261718-1.480468 4.550781-2.335937 6.78125-1.109375 2.929687-2.398438 5.777343-3.65625 8.648437-.886719 2.058594-1.679688 4.152344-2.632813 6.183594-1.519531 3.203125-3.199218 6.402343-4.894531 9.539062-.839844 1.597657-1.601563 3.238281-2.480469 4.796875-2.640625 4.714844-5.453125 9.335938-8.4375 13.867188-3.773437 5.710937-7.773437 11.21875-12 16.527344-1.335937 1.671874-2.832031 3.199218-4.21875 4.800781-2.984375 3.535156-5.933594 7.101562-9.117187 10.398437-1.769531 1.847656-3.707031 3.519532-5.53125 5.304688-2.984375 2.917968-5.917969 5.894531-9.054688 8.632812-2.0625 1.804688-4.28125 3.414063-6.398437 5.132813-3.082032 2.503906-6.113282 5.074219-9.3125 7.402343-2.335938 1.6875-4.800782 3.199219-7.199219 4.800782-3.203125 2.117187-6.296875 4.320312-9.601563 6.277344-2.566406 1.535156-5.257812 2.847656-7.878906 4.273437-3.273437 1.777344-6.488281 3.640625-9.847656 5.246094-2.785156 1.34375-5.691406 2.457031-8.53125 3.679687-3.335938 1.433594-6.628906 2.960938-10.046875 4.234375-2.984375 1.113281-6.070313 1.992188-9.113281 2.984375-3.039063.992188-6.183594 2.09375-9.351563 2.96875-30.964843-8.558594-59.710937-23.730468-84.246093-44.472656zm144.234375 52.75c-9.664062 0-19.316406-.617188-28.898438-1.855469.265626-.105469.511719-.242187.800782-.351562 4.800781-1.992188 9.542968-4.160157 14.199218-6.457031.992188-.488282 1.976563-.992188 2.960938-1.496094 4.6875-2.398438 9.320312-4.894532 13.832031-7.582032.417969-.257812.800781-.53125 1.25-.800781 4.277344-2.59375 8.453125-5.328125 12.566407-8.175781l2.3125-1.601562c4.21875-2.996094 8.332031-6.136719 12.335937-9.414063.800781-.671875 1.601563-1.363281 2.464844-2.042969 4.070312-3.40625 8.070312-6.917968 11.925781-10.589844.183594-.183593.359375-.375.554688-.550781 3.726562-3.59375 7.328124-7.347656 10.832031-11.203125.65625-.726562 1.328125-1.4375 1.984375-2.175781 3.46875-3.898437 6.820312-7.914063 10.046875-12.046875.632812-.800781 1.246093-1.601562 1.871093-2.464844 3.289063-4.328125 6.488282-8.742187 9.496094-13.320312 3.199219-4.796875 6.183594-9.695313 8.953125-14.6875.902344-1.597656 1.671875-3.261719 2.527344-4.878906 1.824219-3.425782 3.664063-6.847657 5.3125-10.351563.933594-1.984375 1.726563-4 2.597656-6.03125 1.410157-3.203125 2.839844-6.402344 4.097657-9.671875.847656-2.210938 1.601562-4.457031 2.34375-6.683594 1.097656-3.132812 2.230468-6.253906 3.199218-9.4375.722656-2.402344 1.3125-4.800781 1.953125-7.199218.847657-3.105469 1.710938-6.195313 2.398438-9.328126.5625-2.480468 1-4.992187 1.488281-7.496093.601562-3.097657 1.226562-6.183594 1.703125-9.3125.402344-2.570313.675781-5.160157.984375-7.753907.378906-3.09375.800781-6.199218 1.015625-9.320312.21875-2.621094.320313-5.261719.449219-7.894531.113281-2.214844.328125-4.414063.375-6.640625.378906.105468.761718.175781 1.144531.28125l.800781.214844c1.90625.457031 3.800782.992187 5.601563 1.488281l.878906.265625c2.246094.671875 4.542969 1.367187 7.085937 2.253906 3.585938 1.144531 7.203126 2.402344 10.792969 3.832031 2.167969.847657 4.402344 1.777344 6.632813 2.730469 2.769531 1.148438 5.535156 2.398438 8.238281 3.652344 2.578125 1.25 5.152344 2.496094 7.683594 3.800781 2.917969 1.539063 5.832031 3.074219 8.796875 4.800781 3.671875 2.132813 7.277344 4.359375 10.824218 6.679688 1.160157.761718 2.28125 1.601562 3.425782 2.402344 2.398437 1.597656 4.71875 3.199218 7.015625 4.925781 1.335937.984375 2.632812 2.023437 3.9375 3.039062 2.054687 1.601563 4.101562 3.203125 6.09375 4.800781 1.375 1.144532 2.710937 2.328126 4.054687 3.503907 1.347656 1.175781 2.480469 2.199219 3.707032 3.320312l-.160157.578125c-26.210937 98.03125-115.011719 166.226563-216.488281 166.246094zm0 0"/></svg>